<?xml version="1.0" encoding="UTF-8"?>
<svg id="Capa_1" data-name="Capa 1" xmlns="http://www.w3.org/2000/svg" viewBox="0 0 366.55 318.13">
  <defs>
    <style>
      .cls-1 {
        fill: #fff;
      }

      .cls-2 {
        fill: #056d95;
      }
    </style>
  </defs>
  <circle class="cls-2" cx="201.27" cy="169.23" r="148.89"/>
  <polygon class="cls-1" points="127.35 200.9 127.95 187.12 127.95 179.9 130.62 163.73 123.29 157.9 124.48 145.24 128.18 125.45 130.62 103.67 123.29 89.01 124.24 82.34 130.62 83.23 127.47 78.34 127.95 68.79 122.7 57.42 124.24 44.77 126.66 43.45 127.73 28.12 130.62 28.12 133.51 9.9 138.4 7.67 161.26 17.83 167.51 24.86 177.3 10.96 186.95 7.67 186.95 14.79 191.02 15.23 203.79 10.56 217.07 11.01 220.91 7.67 229.51 1.45 241.51 10.9 244.84 17.67 249.07 18.34 254.21 23.46 257.48 31.87 258.82 40.97 256.34 47.84 256.62 53.23 264.84 55.52 270.4 57.45 266.4 62.56 273.44 65.47 279.99 71.01 280.21 73.45 277.73 77.9 283.97 83.67 289.95 87.8 289.95 92.79 286.4 93.01 289.95 99.79 294.09 106.27 294.09 113.67 289.8 117.67 297.64 124.77 301.37 135.23 301.37 141.82 318.4 187.45 316.84 220.76 311.73 235.67 309.41 240.26 310.93 248.78 310.12 256.91 307.07 260.79 301.37 255.67 298.66 259.13 297.66 265.36 282.4 264.12 267.29 264.12 248.82 260.34 237.15 258.38 231.28 256.6 223.61 257.75 219.77 257.67 214.27 262.4 214.4 270.76 212.62 279.03 154.07 295.23 124.24 229.9 127.35 200.9"/>
  <path d="m232.09,58.12c-.67,2.77,5,2.61,6.56,3.11,1.68.54,5.53,3.37,7.02,3.54,3.78.45,7.21-7.22,8.64-10.48,2.21-5.04,3.06-10.43,2.37-15.9-.55-4.36-2.97-14.91-6.71-17.8-3.6-2.78-1.32,1.57-4.9-.18-1.27-.62-3.73-5.82-4.61-7.02-2.09-2.83-4.55-5.56-7.13-7.95-5.81-5.39-7.94-.33-12.36,4.86-2.26,2.65-8.37,13.34-11.47,13.7.78-3.16,6.16-7.52,6.14-10.18-.02-2.91-6.31-2.04-8.53-1.95-9.35.39-16.04,4.28-23.65,9.23.04-1.56,2.85-9.64,2.59-10.12-1.46-2.71-5.2.43-7.28,1.84-2.98,2.02-5.88,4.65-7.68,7.81-.94,1.67-1.71,2.99-1.64,4.94.07,1.72,3.11,2.69,1.86,4.73-1.45.36-6.08-6.81-7.71-8.16-3.5-2.9-7.65-5.14-11.66-7.22-3.5-1.81-10.06-5.89-14.15-5.53-4.39.38-3.85,5.89-4.42,9.79-.42,2.86.2,10.53-1.76,12.38-.67.63-1.97-1.8-3.17-.6-.98.97-.07,6.3-.06,7.5.02,1.43,1.18,10.82-.23,11.38-2.73,1.09-2.06-4.55-3.85.09-2.16,5.61,3.73,18.5,8.97,21.15,4.05,2.05,4,.74,4.41-2.06.65-4.46-1.59-8.45-.13-13.2,1.11-3.6,5.03-24.01,8.98-24.63,3.65-.58,6.01,7.1,5.53,9.25-.47,2.11-2.4,3.92-2.83,6.32-.39,2.17.62,5.16-.71,7.03-2.28-.44-.48-4.34-3.32-2.19-2.34,1.76,1.75,9.46,2.58,11.15-2.37-1.33-7.6-8.66-9.04-7.71-1.23.82-.78,7.16-.62,8.49.34,2.81,3.76,7.47,3.63,9.72-.34,5.61-8.68-1.99-11.43-.67-5.22,2.5,2.73,12.31,2.06,15.82-3.45-.93-6.65-6.52-8.04-2.74-1.75,4.75,6.29,13.32,8.06,17.33,1.12,2.53,1.95,5.17,2.2,7.93.15,1.69-1.06,6.01-.02,7.51.64.93,5.94,1.25,7.22,1.76,3.72,1.47,5.68,3.88,8.71,6.24,2.17,1.69,5.91,4.66,8.43,5.47,4.77,1.52,11.71-1.97,14.9-5.21,8.2-8.35,16.06-14.02,28.61-11.44,7.21,1.48,9.77,3.88,15.73-1.72,5.4-5.08,10.66-10.32,16.01-15.45,2.56-2.45,9.21-11.23,13.31-10.85,9.49.88-3.85,11.72-5.87,13.65-5.08,4.82-10.13,9.66-15.2,14.49-5.2,4.96-9.32,6.97-8.15,14.25,1.77,11-1.71,20.28-12.14,25.34-12.35,6-28.56.42-33.26-13.01-.64-1.83-.31-5.72-1.82-6.97-1.59-1.32-5.66.01-7.6.11-3.11.15-5.61-.83-6.89,1.53-.95,1.76,2,9.68,1.95,12.23,1.88-1.69,1.63-4.33,3.14-6,.44,9.38-9.23,13.8-11.86,21.97-1.25,3.9-.65,8.14,1.29,11.74.61,1.14,4.23,6.61,6.09,5.9,1.98-.75-7.16-9.74-5.92-13.65,2.22-6.99,17.46-6.3,18.83.97,1.18,6.27-8.97,7.57-7.79,13.52,1.95,9.8,18.59,7.37,24.54,4.43,8.81-4.35,14.57-12.43,22.89-17.42,4.04-2.42,8.54-4.16,13.33-3.79,2.71.21,10.47,1.76,11.04,5.05-6.17-2.46-10.99-5.07-17.69-2.61-6.33,2.32-10.81,7.34-15.63,11.78-9.52,8.76-23.34,16.93-35.93,9.02-4.03-2.54-10.3-5.95-13.31-9.65-1.45-1.79-1.88-5-3.95-6.17-2.64-1.49-6.35,1.01-9.11.77-3.14-.28-3.42-2.09-5.77-2.87-2.64-.88-.74-2.23-2.66.65-3.09,4.62-1.58,14.96-2.34,20.41-3.38-4.98-1.23-13.71-.41-19.24.37-2.47,2.39-7.3,1.54-9.72-1.01-2.89-1.32-1.02-3.72-2.45-4.89-2.92-3.51-11.42-2.53-16.67.3-1.58,2.68-6.31,1.8-7.88-.9-1.6-3.21-1-4.47-2.16-7.58-6.97,14.14-23.39,10-32.48-3.11-6.81-8.9-11.3-7.99-19.61,1.02-9.32,2.33-.17,5.21-1.5.74-.34.05-8.58.01-9.72-.19-5.2-3.18-9.04-4.44-14.07-.73-2.89-2.76-13.07-.75-15.72,2.71-3.56.9,1.31,3.3.71,1.46-.36.92-11.31,1.09-12.76.14-1.19-.16-4.26.98-5.08.46-.33,2.83.2,2.66.43,2.96-3.97-.95-17.17,5.67-18.83,3.1-.78,10.2,3.35,13,4.58,4.43,1.94,8.71,4.23,12.61,7.09,4.12,3.02,4.19,5.15,7.75,1.64,2.92-2.88,4.74-6.14,8.29-8.52,2.52-1.69,6.88-4.34,10.02-4.32,6.83.03-.07,2.38.83,5.63.98,3.55,5.22-.12,7.5-.9,5.42-1.85,11.28-2.01,16.94-1.74,4.67.22,5.33.35,8.47-3.12,2.62-2.89,5.42-7.64,9.63-6.24,3.94,1.3,8.36,7.56,10.82,10.65.07.08,2.89,4.63,3.94,4.17,1.13-.5.35-1.82,1.22-2.55,3.26.62,7.01,9.85,8.21,12.43,2.33,5.04,3.94,10.44,3.94,16.03,0,2.67-2.62,9.92-.65,11.66,1.18,1.04,4.16.57,5.67.87,3.54.72,6.76,2.17,9.69,4.27-2.27,3.21-7.38,1.52-3.24,5.42,3.37,3.17,8.17,4.03,11.23,8.14,4.18,5.63.31,2.63-1.4,5.06-1.68,2.38,5.92,6.39,7.92,8.84,2.27,2.78,4.59,6.15,3.79,8.93-.09.31-2.54-.19-2.89.81-.26.73,1.68,3.47,1.7,3.51,2.14,4.38,4.47,8.94,4.86,13.92.51,6.53-1.75,1.72-3.11,5.02-.32.79,6.33,8.48,6.9,9.49,1.73,3.06,2.39,10.36,4.62,12.52,2.15,2.08,9.11,2.05,12.1,3.33,3.67,1.57,7.03,3.81,9.94,6.55,5.84,5.52,10.26,13.19,12.58,20.85,3.24,10.69.99,20.77,8.06,30.38,1.98,2.69,4.73,6.49,8.33,6.98,2.62.35,7.57-4.14,9.4-3.07.93.55.36,3.32.49,3.95.32,1.6,1.63,3.74,1.74,5.25.27,3.79-1.69,8.41-3.15,11.88-6.93,16.41-26.35,25.78-43.09,17.81-2.69-1.28-6.53-5.77-8.75-4.04-1.16.91-.4,10.7-.62,12.29-.33,2.43-1.02,11.66-4.67,10.87-2.8-.61-2.21-7.88-5.69-5.03-2.84,2.33,1.38,6.97-4.16,8.39-1.98.51-6.28-.79-8.46-.83-2.83-.06-5.66.16-8.48.34-11.84.77-21.37-.76-32.59-4.42-6.43-2.1-21.51-6-27.5-1.37-4.97,3.84-1.14,5,2.56,5.55,6.69.99,13.36,2.16,20.03,3.3,2.24.39,10.83.1,12.44,2.13,2.8,3.54-6.57,4.64-8.6,5.21-12.08,3.37-24.16,6.69-36.3,9.83-12.26,3.16-24.46,6.54-36.65,9.94-3.87,1.08-7.86,2.97-11.63,3.92-5.79,1.45-13.53-1.36-19.35-2.5-23.84-4.67-47.64-9.61-71.52-14.09-8.44-1.58-20.51-1.52-25.92-9.08-6.43-8.99-9.39-22.8-13.31-33.02-8.77-22.85-17.8-45.61-26.4-68.53-.99-2.63-5.22-10.19-4.65-13.06.91-4.58,6.14-2.65,9.65-2.23,12.08,1.43,24.18,2.68,36.25,4.11,11.91,1.41,23.8,3.12,35.75,4.24,4.99.47,9.97.9,14.94,1.55,5.32.7,14.26-.14,18.85,2.66,3.35,2.04,4.4,6.95,5.68,10.38,2.35,6.3,4.6,12.64,6.93,18.94,4.45,12.02,9,24.01,13.5,36.01,4.51,12.02,8.77,24.13,13.17,36.19,1.79,4.92,3.49,15.36,7.08,19.08,1.4,1.45.37,1.88,2.08.84-.44-.82-.46-1.65-.05-2.5,1.4-.64,2.86-1.08,4.39-1.31,12.68-3.55,25.79-5.8,38.28-10.03,5.99-2.03,3.22-2.49-2.08-3.44-6.35-1.13-12.7-2.25-19.06-3.34-6.4-1.11-12.8-2.21-19.21-3.27-4.6-.76-9.86-.3-12.55-4.32-2.92-4.37-4.2-8.4,1.81-8.06,5.69.32,12.02,1.22,17.65,2.16.3-1.89-7.63-3.85-9.49-4.77-2.1-1.05-3.05-1.79-5.47-1.68-2.02.09-3.8,1.97-5.99,1.8-5.16-.42,1.1-2.16,2.98-3,4.37-1.96,8.11-5.14,11.65-8.31-.97,1.26-4.67,4.67-4.48,6.35.26,2.31,5.33,4.3,7.26,4.85,7.63,2.18,6.24-4.17,9.36-9.33,3.39-5.61,8.98-9.67,13.65-14.14,5.72-5.46,10.75-11.13,17.68-15.04-6.69,5.1-12.1,11.53-18.03,17.45-5.57,5.57-12.86,10.75-14.16,19.03-.65,4.15.39,15.37,5.98,16.53,8.06,1.67-1.06-13.31,3.91-16.4,1.93.71.75,9,.99,11.03.46,3.91,1.39,7.71,5.58,9,10.42,3.2,6.19-11.85,6.29-17.55,4.25,5.35-.8,19.32,9.89,12.57,7.4-4.67,10.51-12.73,13.5-20.52,1.68,2.05-1.18,3.22-.13,4.79,1.18,1.77,3.28,1.28,5.25,1.54,4.1.54,11.06.14,14.32,3.15-1.6-.19-25.5-3.06-21.03,2.02,1.26,1.43,11.14.03,13.38.26,5.07.52,10.06,1.7,14.94,3.13,10.63,3.13,19.07,3.67,30.16,3.21,1.97-.08,14.27,1.39,15.2.25,1.8-2.2-5.73-8.56-6.91-9.61,2.48.55,6.25,4.99,7.91,5.11,3.65.26-.07-4.18.79-5.93,2.31-4.72,6.04,7.12,9.22,4.92,2.08-1.43,1.95-10.31,2.06-12.88.22-4.94-.23-9.92-1.43-14.71-1.14-4.56-3.28-8.8-4.25-13.4-1.11-5.26-.94-5.38,3.59-4.66,3.69.58,3.69,1.79,3.35-2.76-.25-3.37-3.75-8.78-2.94-11.97,1.14-4.51,2.41.63,5-1.26,2.06-1.5-.36-7.97-.83-10.13-4.04-18.58-10.44-37.89-20.77-54,3.53.82,5.71,3.07,8.79,4.49-.63-3.77-8.86-22.08-14.45-20.18-1.49.51,2.78,7.22,3.18,8.86.3,1.24.54,10.52-.99,9.36-.67-.51.99-4.45.98-5.72-.03-2.84-1.27-5.24-2.74-7.58-2.83-4.53-6.96-6.15-10.63-9.75,4.24-.86,8.17-.37,12.3.72,3.68.97,4.76,2.37,5.32-1.1.52-3.23-3.53-9.64-5.1-12.33-1.68-2.86-7.25-7.47-7.42-10.66,3.01.33,5.24,2.65,8.71,3.14-2.03-4.02-5.34-7.14-8.98-9.7-1.26-.89-8.29-3.62-8.33-4.8-.05-1.83,6.46-1.19,7.37-2.68,1.48-2.41-5.08-6.02-6.79-7-1.59-.91-9.66-2.86-10.3-4.05-1.8-3.36,3.86-3.28,5.27-5.81-4.17-.83-9-2.95-12.46-.36-2.66,1.99-6.11,12.92-10.02,12.7-1.96-.11-1.55-.65-2.11-1.93-.79-1.79,1.1-1.85-.71-3.8-2.64-2.84-12.36-2.33-15.64-2.01,1.46-2.49,3.87-2.46,5.73-3.38,0,0-.02-.03-.02-.03Zm80.93,153.22c0,1.6-.02,2.56,0,3.52.12,4.04-2.81.14-3.37,1.49-.71,1.68.51,4.28.74,5.99,1.04,7.72.42,11.07,7.2,15.91,9.69,6.91,22.03,6.54,31.88.05,5.7-3.76,14.2-13.84,13.1-21.42-.23-1.62-1.71-1.73-1.83-3.2-.1-1.16,2.34-4.37,1.36-5.31-.47-.46-8.6.68-9.78.71-1.59.04-2.37,1.15-3.52.47-1.03-.61-2.54-4.59-3.27-5.74-2.89-4.57-5.98-8.89-7.24-14.28-2.52-10.85-1.52-20.45-8.05-30.27-5.33-8.02-13.29-15.27-23.26-16.14-5.91-.51-6.68.37-4.48,5.57,2.32,5.47,4.51,10.95,6.36,16.61,1.91,5.83,3.68,11.74,5.02,17.73.69,3.07,3.9,13.1,2.06,15.88-1.81,2.75-3.87-1.36-5.31.77-1.06,1.56,2.8,9.14,2.38,11.69Zm-244.85,1.45c-2.1-.15-3.11.39-3.96,1.46-5.57,7,3.1,20.85,8.77,25.38,3.62,2.89,6.66,1.53,10.93,2.69,3.81,1.04,5.15,2.44,7.55-2.44,2.39-4.87-.14-6.14-3.18-9.33-1.42-1.49-2.68-2.94-3.28-4.98-.65-2.22.66-4.46.29-6.41-1.84-9.63-12.54-1.67-17.12-6.39Zm56.14-60.8c0,1.73,0,3.45,0,5.18,0,2.32,5.36,2.31,6.96,4.42,1.6,2.11.28,9.27,4.54,8.04,1.18-.34.65-3.01,2.22-3.13,2.35-.18.04,2.2.39,3.17.85,2.34-1.48,1.44,1.88,2.66.58.21,4.77.02,5.57-.61,1.49-1.18,3.65-7.8,2.96-9.38-.58-1.34-10.39-4.64-12.42-6.39-1.87-1.62-3.55-3.49-5-5.49-1.11-1.52-2.27-5.3-3.76-6.39-4.14-3.01-3.33,4.38-3.34,7.91Zm19.1-95.69c.32-2.85.51-5.39,2.15-7.32,1.76-2.06,5.01-7.41,4.83-10.37-.09-1.43-1.91-6.09-4.16-5.27-1.92.7-3.36,10.09-3.76,11.78-.94,3.94-2.17,7.9.94,11.18Zm-7.37,64.58c.86,1.3,1.94,1.48,2.85,1.89,10.64,4.72,17.66,19.23,14.76,30.48-.18.68-.91,1.69.02,2.01,1.07.37,1.39-.83,1.52-1.64,1.74-11.19-1.13-20.86-9.72-28.48-2.54-2.25-5.53-3.93-9.43-4.26Zm59.96,35.65c3.21-.63,7.09-.76,10.47-2.8,4.71-2.85-1.5-1-2.98-.37-4.22,1.8-8.58,2.08-13.01.94-3.64-.93-6.95-2.73-9.67-5.32-1.25-1.19-5.42-8.53-6.55-8.01-2.28,1.05,6.04,9.65,7.13,10.5,4.21,3.28,9.32,4.81,14.61,5.07Zm-125.23,52.62c0,.54,0,.92,0,1.3.08,5.94,5.52-.48,5.58-3.58.14-7.65-6.33-1.82-5.58,2.28Z"/>
  <path class="cls-1" d="m222.89,55.31c-7.54,1.43,1.51-4.85.67-6.36-2.07-.72-11.14.5-11.91-.33-1.92-2.11.28-4.18,2.58-5.57,4.05-2.43,4.81-1.75,7.38-5.98,1.74-2.86,3.75-6.45,6.3-8.64,3.75-3.23,3.44-1.18,5.09,3.43,1.42,3.94,3.17,7.94,3.29,12.18.09,3.07-.37,7.99-3.2,9.96-3.03,2.12-6.98-.08-10.21,1.32Z"/>
  <path d="m279.99,158.74c-1.95-.94-3.36-3.64-5.53-4.04-3.49-.64-1.1.86-.52,2.67.58,1.79,6.95,17.24.98,17.35-2.84.05-2.86-7.49-6.23-7.19-.42.04-.46,2.48-1.29,2.61-.72.11-2.22-1.52-2.81-1.75-3.7-1.41-6.32-3.32-10.51-3.49.38,3.57,8.39,10.71-.4,8.23-3.42-.97-6.59-2.48-10.12-3.11-2.64-.47-5.65.22-7.94-1.13,3.8-.75,7.41-.81,11.18.06,1.63.37,5.05,2.61,6.38,2.22,3.93-1.15-3.47-5.2-3.14-6.51.79-3.11,10,.1,11.95,1.06,5.4,2.67,4.72,3.65,5.75-1.84,3.78,1.52,8.76,10.9,7.1.39-.45-2.87-7.93-12.77-2.63-11.41,3.21.83,5.94,2.35,7.79,5.89Z"/>
  <path d="m222.89,55.31c3.23-1.4,7.18.8,10.21-1.32,2.83-1.97,3.29-6.89,3.2-9.96-.13-4.25-1.88-8.24-3.29-12.18-1.66-4.61-1.34-6.66-5.09-3.43-2.54,2.19-4.56,5.78-6.3,8.64-2.57,4.23-3.33,3.55-7.38,5.98-2.3,1.39-4.5,3.46-2.58,5.57.76.84,9.84-.38,11.91.33-6.77-.64-13.31.41-19.77,2.67,2.97-1.28,4-3.28,5.66-5.82,2.37-3.62,4.09-3.48,7.25-5.68,4.4-3.06,6.73-13.38,12.07-15.13,5.18-1.7,8.34,12.76,9.01,16.64.64,3.72-.05,6.77-1.26,10.28-1.06,3.06-2.64,3.8.65,5.85-1.7.67-3.37.75-5.08.36,0,0,.02.03.02.03,1.18-1.28.39-1.75-.83-2.07-2.76-.71-5.56-.88-8.4-.77Z"/>
  <path d="m140.4,202.35c8.1-2.13,17.28-1.44,23.11,5.21,3.52,4.01,4.75,9.1,5.93,14.17.73,3.17,1.49,6.26,2.75,9.27.95,2.28,3.6,5.07,4.05,7.23,1.01,4.82-2.75-.13-4.36-2.7-3.06-4.87-3.7-10.26-5-15.72-2.7-11.29-9.55-18.56-21.75-17.79-1.58.1-3.15.22-4.73.33Z"/>
  <path d="m155.17,267.13c16.95,2.76,33.28,5.43,50.02,8.16-2.5,1.7-4.98,1.59-7.28,1.09-12.24-2.63-24.6-4.62-36.94-6.68-1.88-.31-3.96-.34-5.8-2.56Z"/>
  <path d="m196.27,277.79c-6.01,3.03-14.64-.31-20.76-1.47-3.93-.74-15.88-.88-18.11-3.82-1.87-2.46,11.74.5,13.06.72,7.85,1.28,15.7,2.62,23.55,3.95.55.09,1.09.3,2.26.62Z"/>
  <path d="m186.7,280.06c-3.64,2.32-7.77,1.05-11.68.34-3.61-.66-11.55-.66-14.41-2.95-2.79-2.23-1.75-1.84,1.28-1.84,4.9,0,11.5,2.02,16.3,2.99,2.79.56,5.61.96,8.51,1.45Z"/>
  <path d="m276.45,131.6c2.65.85,4.28,6.21,6.46,4.19,1.29-1.19-4.72-12.31-5.48-13.61,4.35,2.86,5.95,4.5,6.5,9.6.12,1.11-.01,12.87-2.07,9.4-1.87-3.16-3.62-6.39-5.42-9.59Z"/>
  <path d="m271.45,219c-14.29-7.49-29.16-10.78-45.25-10.22,12.95-3.03,35.88,2.21,45.25,10.22Z"/>
  <path d="m146.93,243.7c-1.53-8.06-.43-16.5-3.41-24.35,3.82,7.74,4.84,15.87,3.41,24.35Z"/>
  <path d="m176.96,282.79c-3.87,1.71-9.13,1.38-13.05-.2-2.27-.91-5.39-3.61-.9-2.66,4.51.95,9.16,1.25,13.95,2.86Z"/>
  <path d="m205.93,29.78c-3.7,7.08-8.4,13.69-9.06,22.15-1.48-9.36,3.78-15.79,9.06-22.15Z"/>
  <path class="cls-1" d="m313.02,211.34c.41-2.55-3.44-10.12-2.38-11.69,1.44-2.13,3.5,1.98,5.31-.77,1.83-2.77-1.38-12.8-2.06-15.88-1.34-5.99-3.11-11.9-5.02-17.73-1.85-5.65-4.04-11.14-6.36-16.61-2.2-5.2-1.44-6.08,4.48-5.57,9.97.86,17.93,8.12,23.26,16.14,6.53,9.83,5.53,19.43,8.05,30.27,1.25,5.39,4.34,9.7,7.24,14.28.73,1.16,2.24,5.13,3.27,5.74,1.15.68,1.93-.43,3.52-.47,1.18-.03,9.31-1.16,9.78-.71.97.94-1.46,4.15-1.36,5.31.12,1.47,1.6,1.58,1.83,3.2,1.09,7.58-7.4,17.66-13.1,21.42-9.85,6.49-22.19,6.86-31.88-.05-6.78-4.83-6.16-8.18-7.2-15.91-.23-1.71-1.44-4.31-.74-5.99.57-1.35,3.5,2.55,3.37-1.49-.03-.96,0-1.92,0-3.52Z"/>
  <path class="cls-1" d="m68.16,212.79c4.58,4.71,15.28-3.25,17.12,6.39.37,1.95-.94,4.19-.29,6.41.6,2.03,1.86,3.48,3.28,4.98,3.03,3.18,5.57,4.46,3.18,9.33-2.4,4.89-3.74,3.48-7.55,2.44-4.27-1.16-7.31.2-10.93-2.69-5.67-4.53-14.34-18.39-8.77-25.38.85-1.07,1.86-1.61,3.96-1.46Z"/>
  <path class="cls-1" d="m124.3,151.99c0-3.53-.8-10.92,3.34-7.91,1.49,1.09,2.65,4.87,3.76,6.39,1.46,2,3.13,3.87,5,5.49,2.03,1.75,11.84,5.05,12.42,6.39.69,1.59-1.47,8.21-2.96,9.38-.8.63-4.99.82-5.57.61-3.36-1.22-1.02-.32-1.88-2.66-.35-.97,1.96-3.35-.39-3.17-1.56.12-1.04,2.79-2.22,3.13-4.25,1.22-2.93-5.93-4.54-8.04-1.6-2.11-6.96-2.1-6.96-4.42,0-1.73,0-3.45,0-5.18Z"/>
  <path class="cls-1" d="m143.4,56.3c-3.11-3.28-1.89-7.24-.94-11.18.4-1.68,1.84-11.08,3.76-11.78,2.25-.82,4.07,3.84,4.16,5.27.18,2.95-3.07,8.31-4.83,10.37-1.64,1.92-1.83,4.46-2.15,7.32Z"/>
  <path class="cls-1" d="m136.03,120.88c3.9.33,6.89,2.01,9.43,4.26,8.59,7.62,11.46,17.3,9.72,28.48-.13.8-.44,2.01-1.52,1.64-.93-.32-.2-1.33-.02-2.01,2.91-11.25-4.12-25.76-14.76-30.48-.92-.41-1.99-.59-2.85-1.89Z"/>
  <path class="cls-1" d="m195.99,156.53c-5.29-.25-10.41-1.78-14.61-5.07-1.09-.85-9.42-9.45-7.13-10.5,1.13-.52,5.3,6.83,6.55,8.01,2.72,2.59,6.04,4.39,9.67,5.32,4.43,1.14,8.79.86,13.01-.94,1.48-.63,7.69-2.48,2.98.37-3.37,2.04-7.26,2.17-10.47,2.8Z"/>
  <path class="cls-1" d="m70.76,209.14c-.75-4.1,5.73-9.93,5.58-2.28-.06,3.1-5.5,9.52-5.58,3.58,0-.38,0-.76,0-1.3Z"/>
</svg>